<svg width="16" height="16" overflow="visible" style="display: block;" viewBox="0 0 13.3333 2" fill="none" xmlns="http://www.w3.org/2000/svg">
<g id="Vector">
<path d="M2 1C2 1.55228 1.55228 2 1 2C0.447715 2 0 1.55228 0 1C0 0.447715 0.447715 0 1 0C1.55228 0 2 0.447715 2 1Z" fill="var(--fill-0, #181C25)"/>
<path d="M7.66667 1C7.66667 1.55228 7.21895 2 6.66667 2C6.11438 2 5.66667 1.55228 5.66667 1C5.66667 0.447715 6.11438 0 6.66667 0C7.21895 0 7.66667 0.447715 7.66667 1Z" fill="var(--fill-0, #181C25)"/>
<path d="M12.3333 2C12.8856 2 13.3333 1.55228 13.3333 1C13.3333 0.447715 12.8856 0 12.3333 0C11.781 0 11.3333 0.447715 11.3333 1C11.3333 1.55228 11.781 2 12.3333 2Z" fill="var(--fill-0, #181C25)"/>
</g>
</svg>
