<svg width="9.78" height="14" overflow="visible" style="display: block;" viewBox="0 0 9.77778 14" fill="none" xmlns="http://www.w3.org/2000/svg">
<g id="Vector">
<path d="M2.66667 13H7.11111V14H2.66667V13ZM4.88889 0C7.55556 0 9.77778 2.22222 9.77778 4.88889C9.77778 6.75556 8.88889 8.44444 7.11111 9.24444V12H2.66667V9.24444C0.888889 8.44444 0 6.75556 0 4.88889C0 2.22222 2.22222 0 4.88889 0ZM6.66667 8.44444C8.08889 7.73333 8.88889 6.4 8.88889 4.88889C8.88889 2.66667 7.11111 0.888889 4.88889 0.888889C2.66667 0.888889 0.888889 2.66667 0.888889 4.88889C0.888889 6.4 1.68889 7.73333 3.11111 8.44444L3.55556 8.71111V11H6.22222V8.71111L6.66667 8.44444Z" fill="var(--fill-0, #181C25)"/>
<path d="M2.66663 5.33329V4.4444H7.11107V5.33329H5.33329V9.77773H4.4444V5.33329H2.66663Z" fill="var(--fill-0, #181C25)"/>
</g>
</svg>
