<svg width="12" height="14" overflow="visible" style="display: block;" viewBox="0 0 12 13.9976" fill="none" xmlns="http://www.w3.org/2000/svg">
<g id="Union">
<path d="M0 0H7V1H1V12.9976H11V5H12V13.9976H0V0ZM3 3.50037H7V4.50037H3V3.50037ZM3 6.50037H9V7.50037H3V6.50037ZM3 9.50037H9V10.5004H3V9.50037ZM10.1316 0.0544808C10.1096 0.0325097 10.0825 0.0163806 10.0527 0.00756047C10.0054 -0.00635117 9.95444 -0.000920121 9.9111 0.0226626C9.86776 0.0462454 9.83554 0.0860548 9.82151 0.133361L9.70446 0.528235C9.62165 0.80745 9.47033 1.06152 9.26426 1.2673C9.05819 1.47308 8.80393 1.62405 8.52462 1.70645L8.13387 1.82177C8.09535 1.83298 8.0615 1.85635 8.03737 1.88839C8.01324 1.92044 8.00013 1.95943 8 1.99955C7.99987 2.03966 8.01273 2.07874 8.03664 2.11094C8.06056 2.14315 8.09426 2.16674 8.1327 2.1782L8.53161 2.2976C8.80899 2.38065 9.06136 2.5314 9.26599 2.73626C9.47063 2.94112 9.62111 3.19366 9.70388 3.47115L9.82151 3.86719C9.83303 3.90558 9.85661 3.93923 9.88876 3.96316C9.92092 3.98708 9.95993 4 10 4C10.0401 4 10.0791 3.98708 10.1112 3.96316C10.1434 3.93923 10.167 3.90558 10.1785 3.86719L10.2961 3.47115C10.3789 3.19366 10.5294 2.94112 10.734 2.73626C10.9387 2.5314 11.191 2.38065 11.4684 2.2976L11.8667 2.1782C11.9052 2.16687 11.939 2.14338 11.963 2.11126C11.987 2.07914 12 2.0401 12 1.99998C12 1.95987 11.987 1.92083 11.963 1.88871C11.939 1.85659 11.9052 1.8331 11.8667 1.82177L11.4754 1.70645C11.1961 1.62405 10.9418 1.47308 10.7357 1.2673C10.5297 1.06152 10.3784 0.80745 10.2955 0.528235L10.1785 0.133361C10.1697 0.103567 10.1535 0.0764518 10.1316 0.0544808Z" fill="#181C25"/>
</g>
</svg>
