<svg width="23.11" height="24.35" overflow="visible" style="display: block;" viewBox="0 0 23.1146 24.3537" fill="none" xmlns="http://www.w3.org/2000/svg">
<path id="Vector" d="M22.5312 12.1771C22.5312 10.9507 22.4839 9.77329 22.4082 8.67594C22.3413 7.70559 21.8877 6.79586 21.1629 6.11816L16.4506 1.7124C15.7866 1.09152 14.9446 0.709357 14.0582 0.657393C13.2582 0.610575 12.4203 0.583333 11.5573 0.583333C9.22395 0.583333 7.07862 0.784805 5.35823 1.02311C3.06407 1.34114 1.32421 3.12096 1.02767 5.4266C0.789868 7.27566 0.583333 9.61887 0.583333 12.1771C0.583345 14.7355 0.789857 17.0785 1.02767 18.9275C1.32421 21.2332 3.06404 23.0131 5.35823 23.331C7.07862 23.5693 9.22395 23.7708 11.5573 23.7708V24.3537L10.68 24.3439C8.94433 24.3076 7.33442 24.1684 5.95069 23.9965L5.27873 23.9085C2.71941 23.5539 0.778762 21.5647 0.449167 19.002C0.238992 17.3677 0.0523718 15.3496 0.0091118 13.1364L0 12.1768C0 9.58804 0.20895 7.21938 0.449167 5.3517C0.768542 2.86935 2.59962 0.92456 5.04036 0.48307L5.27873 0.445212C7.01923 0.20412 9.1914 0 11.5573 0C12.4326 0 13.2815 0.0279417 14.0919 0.0753667C15.1247 0.135812 16.0935 0.579553 16.8493 1.28623L21.5616 5.69221C22.3869 6.46392 22.9123 7.50818 22.99 8.6354C23.0666 9.74462 23.1146 10.9354 23.1146 12.1768L23.1054 13.1364C23.0623 15.3496 22.8756 17.3677 22.6655 19.002L22.6304 19.2409C22.2144 21.6875 20.315 23.565 17.8358 23.9085L17.1639 23.9965C15.5497 24.197 13.6277 24.3537 11.5573 24.3537V23.7708C13.8906 23.7708 16.036 23.5693 17.7564 23.331C20.0505 23.0131 21.7904 21.2332 22.0869 18.9275C22.3247 17.0785 22.5312 14.7355 22.5312 12.1771Z" fill="var(--fill-0, #FFD5D2)"/>
</svg>
