<svg width="23.11" height="24.35" overflow="visible" style="display: block;" viewBox="0 0 23.1146 24.3537" fill="none" xmlns="http://www.w3.org/2000/svg">
<path id="Vector" d="M11.5573 0C9.1914 0 7.01923 0.20412 5.27873 0.445212C2.71941 0.799727 0.778762 2.78906 0.449167 5.3517C0.20895 7.21938 0 9.58804 0 12.1768C0 14.7657 0.20895 17.1344 0.449167 19.002C0.778762 21.5647 2.71941 23.5539 5.27873 23.9085C7.01923 24.1495 9.1914 24.3537 11.5573 24.3537C13.9232 24.3537 16.0954 24.1495 17.8358 23.9085C20.3953 23.5539 22.3359 21.5647 22.6655 19.002C22.9057 17.1344 23.1146 14.7657 23.1146 12.1768C23.1146 10.9354 23.0666 9.74462 22.99 8.6354C22.9123 7.50818 22.3869 6.46392 21.5616 5.69221L16.8493 1.28623C16.0935 0.579553 15.1247 0.135812 14.0919 0.0753667C13.2815 0.0279417 12.4326 0 11.5573 0Z" fill="url(#paint0_linear_0_137)"/>
<defs>
<linearGradient id="paint0_linear_0_137" x1="3.50753" y1="0.277106" x2="11.5573" y2="24.3537" gradientUnits="userSpaceOnUse">
<stop stop-color="#FFF2F1"/>
<stop offset="1" stop-color="white" stop-opacity="0.6"/>
</linearGradient>
</defs>
</svg>
