<svg width="12.87" height="12.83" overflow="visible" style="display: block;" viewBox="0 0 12.8683 12.8333" fill="none" xmlns="http://www.w3.org/2000/svg">
<path id="Vector" fill-rule="evenodd" clip-rule="evenodd" d="M8.43384 8.5092C9.18436 9.1525 10.1135 9.50985 11.0783 9.58125C11.6859 9.58125 12.8652 9.58125 12.8652 8.36629C12.9009 7.90172 12.6508 7.11551 10.9711 7.07969C10.2207 7.07969 9.47019 7.1869 8.71979 7.32994C7.82636 6.5079 7.07584 5.54307 6.50406 4.4709C7.11154 2.4697 7.14736 1.1117 6.6828 0.468433C6.46836 0.182541 6.11101 0.00385502 5.75366 0.00385502C5.28898 -0.03188 4.86023 0.182542 4.64579 0.57565C4.00251 1.64775 4.93163 3.75622 5.3605 4.61394C4.86023 6.15055 4.25263 7.61577 3.46646 9.04529C0.0714694 10.5105 0 11.4038 0 11.7255C0 12.1186 0.21441 12.5117 0.607518 12.6904C0.75047 12.7976 0.964891 12.8333 1.14357 12.8333C2.03699 12.8333 3.07335 11.8327 4.18123 9.8672C5.57493 9.29542 6.96863 8.83085 8.43384 8.5092ZM1.1793 11.7613L1.0721 11.797C1.39372 11.3324 1.82257 10.9751 2.35862 10.7606C2.07272 11.2252 1.67961 11.5826 1.1793 11.7613ZM6.00379 6.29347L6.03949 6.32929L6.07519 6.25777C6.46836 6.86525 6.96863 7.47286 7.50471 8.00894H7.39749L7.4332 8.04464C6.64698 8.22325 5.78936 8.47351 5.00315 8.75934V8.68794L4.93163 8.72364C5.32479 7.93742 5.68214 7.1155 6.00379 6.29347ZM10.0063 8.22325C10.3279 8.15185 10.6138 8.15185 10.9354 8.15185C11.6501 8.15185 11.8694 8.31332 11.7931 8.43769C11.7167 8.56205 11.3286 8.5449 11.0783 8.5092C10.721 8.4735 10.3636 8.40199 10.0063 8.22325ZM5.78936 2.93427C5.53923 2.36248 5.45243 1.63214 5.57493 1.1117C5.61331 0.948493 5.75366 0.868938 5.82506 1.07596C5.98034 1.52565 6.00379 2.32675 5.78936 2.93427Z" fill="var(--fill-0, #E63F33)"/>
</svg>
