<svg width="24" height="24" overflow="visible" style="display: block;" viewBox="0 0 24 24" fill="none" xmlns="http://www.w3.org/2000/svg">
<g id="Icon">
<path id="Vector" d="M12 1.5625C9.97209 1.5625 8.11023 1.73746 6.61838 1.94411C4.42467 2.24798 2.76126 3.95312 2.47875 6.14967C2.27285 7.75054 2.09375 9.78082 2.09375 11.9998C2.09375 14.2188 2.27285 16.2491 2.47875 17.8499C2.76126 20.0465 4.42467 21.7516 6.61838 22.0555C8.11023 22.2621 9.97209 22.4371 12 22.4371C14.0279 22.4371 15.8898 22.2621 17.3816 22.0555C19.5754 21.7516 21.2388 20.0465 21.5213 17.8499C21.7272 16.2491 21.9063 14.2188 21.9063 11.9998C21.9063 10.9357 21.8651 9.91503 21.7995 8.96427C21.7329 7.99808 21.2825 7.103 20.5751 6.44154L16.536 2.66498C15.8882 2.05926 15.0578 1.67891 14.1725 1.6271C13.4779 1.58645 12.7503 1.5625 12 1.5625Z" fill="url(#paint0_linear_0_4)"/>
<path id="Vector_2" d="M21.4062 12C21.4062 10.9488 21.3657 9.93961 21.3008 8.99902C21.2434 8.16729 20.8546 7.38752 20.2334 6.80664L16.1943 3.03027C15.6251 2.49809 14.9034 2.17052 14.1436 2.12598C13.4579 2.08585 12.7397 2.0625 12 2.0625C9.99999 2.0625 8.16114 2.23519 6.68652 2.43945C4.7201 2.71205 3.22879 4.23761 2.97461 6.21387C2.77078 7.79878 2.59375 9.80725 2.59375 12C2.59376 14.1929 2.77077 16.2012 2.97461 17.7861C3.22879 19.7624 4.72007 21.288 6.68652 21.5605C8.16114 21.7648 9.99999 21.9375 12 21.9375V22.4371L11.248 22.4287C9.76032 22.3976 8.3804 22.2783 7.19434 22.1309L6.61838 22.0555C4.42467 21.7516 2.76126 20.0465 2.47875 17.8499C2.2986 16.4491 2.13864 14.7193 2.10156 12.8223L2.09375 11.9998C2.09375 9.78082 2.27285 7.75054 2.47875 6.14967C2.7525 4.02194 4.322 2.35498 6.41406 1.97656L6.61838 1.94411C8.11023 1.73746 9.97209 1.5625 12 1.5625C12.7503 1.5625 13.4779 1.58645 14.1725 1.6271C15.0578 1.67891 15.8882 2.05926 16.536 2.66498L20.5751 6.44154C21.2825 7.103 21.7329 7.99808 21.7995 8.96427C21.8651 9.91503 21.9063 10.9357 21.9063 11.9998L21.8984 12.8223C21.8614 14.7193 21.7014 16.4491 21.5213 17.8499L21.4912 18.0547C21.1347 20.1518 19.5066 21.7611 17.3816 22.0555L16.8057 22.1309C15.4221 22.3028 13.7746 22.4371 12 22.4371V21.9375C14 21.9375 15.8389 21.7648 17.3135 21.5605C19.2799 21.288 20.7712 19.7624 21.0254 17.7861C21.2292 16.2012 21.4062 14.1929 21.4062 12Z" fill="var(--fill-0, #FFD5D2)"/>
<path id="Vector_3" d="M15.043 1.79004C15.5958 1.96342 16.1064 2.26335 16.536 2.66498L20.5751 6.44154C20.9944 6.83367 21.3219 7.30857 21.5342 7.83105H17.043C15.9386 7.83086 15.043 6.9355 15.043 5.83105V1.79004Z" fill="var(--fill-0, #FFD5D2)"/>
<path id="Vector_4" fill-rule="evenodd" clip-rule="evenodd" d="M13.714 13.7936C14.3573 14.345 15.1537 14.6513 15.9807 14.7125C16.5015 14.7125 17.5123 14.7125 17.5123 13.6711C17.5429 13.2729 17.3285 12.599 15.8888 12.5683C15.2456 12.5683 14.6023 12.6602 13.9591 12.7828C13.1933 12.0782 12.55 11.2512 12.0599 10.3322C12.5806 8.61688 12.6113 7.45288 12.2131 6.90151C12.0293 6.65646 11.723 6.5033 11.4167 6.5033C11.0184 6.47267 10.6509 6.65646 10.4671 6.99341C9.91571 7.91235 10.7121 9.71961 11.0797 10.4548C10.6509 11.7719 10.1301 13.0278 9.45624 14.2531C6.54625 15.509 6.48499 16.2747 6.48499 16.5504C6.48499 16.8874 6.66877 17.2243 7.00572 17.3775C7.12825 17.4694 7.31204 17.5 7.46519 17.5C8.23098 17.5 9.11929 16.6423 10.0689 14.9576C11.2635 14.4675 12.4581 14.0693 13.714 13.7936ZM7.49582 16.5811L7.40393 16.6117C7.67961 16.2135 8.04719 15.9072 8.50666 15.7234C8.26161 16.1216 7.92466 16.4279 7.49582 16.5811ZM11.6311 11.8944L11.6617 11.9251L11.6923 11.8638C12.0293 12.3845 12.4581 12.9053 12.9176 13.3648H12.8257L12.8563 13.3954C12.1824 13.5485 11.4473 13.763 10.7734 14.008V13.9468L10.7121 13.9774C11.0491 13.3035 11.3554 12.599 11.6311 11.8944ZM15.0618 13.5485C15.3375 13.4873 15.5825 13.4873 15.8582 13.4873C16.4708 13.4873 16.6588 13.6257 16.5934 13.7323C16.5279 13.8389 16.1952 13.8242 15.9807 13.7936C15.6744 13.763 15.3681 13.7017 15.0618 13.5485ZM11.4473 9.01508C11.2329 8.52498 11.1585 7.89897 11.2635 7.45288C11.2964 7.31299 11.4167 7.2448 11.4779 7.42225C11.611 7.8077 11.6311 8.49435 11.4473 9.01508Z" fill="var(--fill-0, #E63F33)"/>
</g>
<defs>
<linearGradient id="paint0_linear_0_4" x1="5.1002" y1="1.80002" x2="12" y2="22.4371" gradientUnits="userSpaceOnUse">
<stop stop-color="#FFF2F1"/>
<stop offset="1" stop-color="white" stop-opacity="0.6"/>
</linearGradient>
</defs>
</svg>
